/* XPM */
static char *_1[] = {
/* columns rows colors chars-per-pixel */
"16 16 249 2 ",
".  c #504C43",
"   c #4C483F",
"X  c #544F46",
"o  c #555147",
"O  c #565147",
"+  c #58544B",
"@  c #5B564B",
"#  c #59554C",
"$  c #59554D",
"%  c #5A564D",
"&  c #5A564E",
"*  c #5F5A51",
"=  c #605B52",
"-  c #635D50",
";  c #615C52",
":  c #605C53",
">  c #625C52",
",  c #615D55",
"<  c #676053",
"1  c #666055",
"2  c #686054",
"3  c #686156",
"4  c #686256",
"5  c #666158",
"6  c #65625A",
"7  c #67635A",
"8  c #696358",
"9  c #6C655A",
"0  c #6C655B",
"q  c #6C675E",
"w  c #6F685C",
"e  c #71695B",
"r  c #736A5B",
"t  c #706A5E",
"y  c #736B5E",
"u  c #6C6962",
"i  c #706A60",
"p  c #706B61",
"a  c #736C60",
"s  c #746D60",
"d  c #726D65",
"f  c #767065",
"g  c #797266",
"h  c #767269",
"j  c #7C7569",
"k  c #7C766C",
"l  c #7E7971",
"z  c #807666",
"x  c #817767",
"c  c #80796D",
"v  c #877D6C",
"b  c #877E6E",
"n  c #807A70",
"m  c #837C71",
"M  c #8B8170",
"N  c #898174",
"B  c #898175",
"V  c #8B8274",
"C  c #8B8375",
"Z  c #888276",
"A  c #8C8274",
"S  c #8B8478",
"D  c #8C8478",
"F  c #908779",
"G  c #928C82",
"H  c #948D81",
"J  c #968E83",
"K  c #938E86",
"L  c #969086",
"P  c #9A9082",
"I  c #999285",
"U  c #989186",
"Y  c #96928B",
"T  c #96938D",
"R  c #989289",
"E  c #9C958B",
"W  c #9D968B",
"Q  c #99948C",
"!  c #9D9993",
"~  c #9F9A93",
"^  c #AC9D87",
"/  c #A09788",
"(  c #A1988A",
")  c #A79C8B",
"_  c #A1998C",
"`  c #A59B8C",
"'  c #A59B8E",
"]  c #AA9C88",
"[  c #A09A91",
"{  c #A29B91",
"}  c #A19B93",
"|  c #A29C90",
" . c #A69E91",
".. c #A29D96",
"X. c #A59E95",
"o. c #A59F96",
"O. c #A99F91",
"+. c #A19E99",
"@. c #A19E9A",
"#. c #A29F9C",
"$. c #ADA08D",
"%. c #AAA091",
"&. c #A4A099",
"*. c #A5A29D",
"=. c #A8A299",
"-. c #ADA599",
";. c #ABA59C",
":. c #A8A59F",
">. c #ACA69E",
",. c #ACA69F",
"<. c #ADA79F",
"1. c #ADA89F",
"2. c #B3A693",
"3. c #B0A695",
"4. c #B4A897",
"5. c #BCAC90",
"6. c #B2A999",
"7. c #B0A89D",
"8. c #B3AB9F",
"9. c #B5AC9F",
"0. c #B5AD9F",
"q. c #A6A5A1",
"w. c #A6A5A3",
"e. c #A7A5A4",
"r. c #AAA6A1",
"t. c #ADA8A0",
"y. c #ADA8A1",
"u. c #AEA8A0",
"i. c #AEA9A2",
"p. c #AEAAA3",
"a. c #A8A8A7",
"s. c #ABA9A7",
"d. c #AFACA7",
"f. c #B0AAA1",
"g. c #B1ABA1",
"h. c #B2ABA0",
"j. c #B1ACA3",
"k. c #B3ACA2",
"l. c #B3ADA3",
"z. c #B2ADA6",
"x. c #B3ADA6",
"c. c #B4ADA5",
"v. c #B4AEA4",
"b. c #B1ADA9",
"n. c #BAB0A0",
"m. c #BAB0A2",
"M. c #BCB1A1",
"N. c #BBB3A6",
"B. c #BEB5A7",
"V. c #B3B1AD",
"C. c #B4B1AC",
"Z. c #B6B2AD",
"A. c #B9B2A8",
"S. c #B9B4AA",
"D. c #BDB6AC",
"F. c #BFB8AD",
"G. c #BEB8B0",
"H. c #BBB9B6",
"J. c #BFBDBA",
"K. c #C1AE93",
"L. c #C1B196",
"P. c #C2B198",
"I. c #C5B499",
"U. c #C2B39D",
"Y. c #C3B49F",
"T. c #C4B49F",
"R. c #C5B69F",
"E. c #C8B79E",
"W. c #C9B89E",
"Q. c #C0B6A7",
"!. c #CBBAA0",
"~. c #C1B7A9",
"^. c #C2B8A9",
"/. c #C3B9AA",
"(. c #C1B9AD",
"). c #C1BAAF",
"_. c #C3BBAE",
"`. c #C4BBAC",
"'. c #CABEAD",
"]. c #C3BBB1",
"[. c #C2BCB3",
"{. c #C5BEB3",
"}. c #C1BDB6",
"|. c #C5BFB4",
" X c #C8BFB3",
".X c #CBC1B0",
"XX c #CFC4B3",
"oX c #C8C3BA",
"OX c #CBC5BD",
"+X c #D2C5B2",
"@X c #D4C5B0",
"#X c #D5C6B0",
"$X c #D4C6B2",
"%X c #D1C6B5",
"&X c #D3C7B5",
"*X c #D4CABA",
"=X c #D5CBBA",
"-X c #D7CDBE",
";X c #C7C5C1",
":X c #CDC9C2",
">X c #CFCAC4",
",X c #DFD3C3",
"<X c #DAD1C5",
"1X c #DED4C4",
"2X c #DDD4C6",
"3X c #DDD4C7",
"4X c #DAD4CA",
"5X c #DED5C8",
"6X c #DDD5CA",
"7X c #DAD6D1",
"8X c #DFD9D0",
"9X c #DEDAD4",
"0X c #DFDEDC",
"qX c #E3DACC",
"wX c #E0D9D0",
"eX c #E1DBD1",
"rX c #E2DBD0",
"tX c #E1DBD2",
"yX c #E3DCD3",
"uX c #E4DDD4",
"iX c #E5DED4",
"pX c #E4DED5",
"aX c #E4DED6",
"sX c #E8DFD2",
"dX c #E8E0D4",
"fX c #E9E1D6",
"gX c #EBE5DC",
"hX c #E8E5E0",
"jX c #EAE6E0",
"kX c #EAE6E1",
"lX c #E9E6E3",
"zX c #ECE8E1",
"xX c #EDEAE6",
"cX c #EBEAEA",
"vX c #EEECE9",
"bX c #ECECEC",
"nX c #F0EBE4",
"mX c #F1EDE8",
"MX c #F2EFEC",
"NX c #F3F0EB",
"BX c #F3F0EC",
"VX c #F3F1ED",
"CX c #F6F4F1",
"ZX c #F5F4F2",
"AX c #F6F5F3",
"SX c #F7F5F3",
"DX c #F9F8F7",
"FX c #FCFBFB",
"GX c #FEFEFE",
/* pixels */
"cXlXyXpXkXxXiX1XqXeXd aXdXsXnXSX",
"7X%XW.!.+X<X-X$X&X*Xn Q.@X#X,XgX",
" XU.5.P.T.'..XY.$.R.] ^ K.I.XX4X",
"Q H a S A F ` y @ M x z r e 8 q ",
"q.&.i j 4 b s N Z D C V t o 9.|.",
"a.,. .B O ' -.<.p.z.x.l.c.j.G.}.",
"w.=.%./ . [ :.r.,.;.i.y.g.f.>.C.",
"e.R P ( * ~ } { _ ) O.X.o.K # +.",
"s.p w > = , % ; X 9 0 5 : 6 & u ",
"H.8.4.3.7.u.| J U I c + ! *...#.",
";X).~.(.F.B.M.m.A.h.l   @.d.1.t.",
"J.v./.`._.^.~.].[.D.Y $ b.Z.k.6.",
"T f 2 < - 3 g k L k G h 7 7 5 1 ",
"hX=XE.L.v 2.n.N.W 0.E S.:X>XOXoX",
"DXmXfX2Xm {.uXrX3X5X6XtX8XwX9X0X",
"GXGXFXZXd.V.AXCXBXNXVXMXzXjXvXbX"
};
